<?xml version='1.0' encoding='utf-8'?>
<!DOCTYPE svg PUBLIC '-//W3C//DTD SVG 1.1//EN' 'http://www.w3.org/Graphics/SVG/1.1/DTD/svg11.dtd'>
<svg version="1.1" xmlns="http://www.w3.org/2000/svg" viewBox="0 0 512 512" xmlns:xlink="http://www.w3.org/1999/xlink" enable-background="new 0 0 512 512">
  <g>
    <g>
      <g>
        <path d="M480.6,11H31.4C20.1,11,11,20.1,11,31.4v449.2c0,11.3,9.1,20.4,20.4,20.4h449.2c11.3,0,20.4-9.1,20.4-20.4V31.4     C501,20.1,491.9,11,480.6,11z M460.2,51.8v133.8c-67.3,8.2-119.4,31.2-159.7,60.9C181.2,235.6,96.9,302,51.8,350.8V51.8H460.2z      M51.8,416.1c15-22.2,87-119,203.8-129.1c-58,63.7-79.4,139.1-86.5,173.1H51.8V416.1z M210.5,460.2     c12.7-58.1,63.5-208.3,249.7-233.4v233.4H210.5z"/>
        <path d="m153.8,213.4c35.2,0 63.9-28.7 63.9-63.9 0-35.2-28.6-63.9-63.9-63.9-35.2,0-63.9,28.7-63.9,63.9 0.1,35.2 28.7,63.9 63.9,63.9zm0-86.9c12.7,0 23,10.3 23,23 0,12.7-10.3,23-23,23-12.7,0-23-10.3-23-23 0-12.7 10.3-23 23-23z"/>
      </g>
    </g>
  </g>
</svg>
